<svg width="1512" height="982" viewBox="0 0 1512 982" fill="none" xmlns="http://www.w3.org/2000/svg">
<path d="M396.004 -219.46L-162 90.5927L-102.151 198.304C-102.151 198.304 -16.3149 128.248 196.122 115.656C408.559 103.064 502.623 -27.5767 502.623 -27.5767L396.004 -219.46Z" fill="#4EA1A8"/>
<path d="M167.08 -92.2586C167.08 -92.2586 259.882 71.4744 93.948 163.675C-71.9861 255.875 -162 90.5927 -162 90.5927C-162 90.5927 -88.333 49.6598 2.53975 -0.833206C93.4125 -51.3262 167.08 -92.2586 167.08 -92.2586Z" fill="#5BBEC7" fill-opacity="0.91"/>
<path d="M413.173 -228.999C413.173 -228.999 506.363 -65.4821 294.257 52.3739C82.1501 170.23 -7.47534 4.73207 -7.47534 4.73207C-7.47534 4.73207 86.6898 -47.5908 202.849 -112.134C319.007 -176.677 413.173 -228.999 413.173 -228.999Z" fill="#66D4DE" fill-opacity="0.88"/>
<path d="M1482.78 1169.41C1482.78 1169.41 1300.59 1122.24 1349.72 938.88C1398.85 755.519 1580.22 805.769 1580.22 805.769C1580.22 805.769 1558.41 887.172 1531.5 987.589C1504.6 1088.01 1482.78 1169.41 1482.78 1169.41Z" fill="#5BBEC7"/>
<path d="M1580.2 1222.22C1580.2 1222.22 1392 1224.26 1392 981.612C1392 738.961 1580.2 741 1580.2 741C1580.2 741 1580.2 848.726 1580.2 981.612C1580.2 1114.5 1580.2 1222.22 1580.2 1222.22Z" fill="#66D4DE" fill-opacity="0.53"/>
</svg>
